<mxfile host="app.diagrams.net" agent="Mozilla/5.0 (X11; Linux x86_64; rv:128.0) Gecko/20100101 Firefox/128.0" version="24.8.4">
  <diagram id="c5abF-_XNL_onJw3WAh4" name="aws-test-env">
    <mxGraphModel dx="1034" dy="479" grid="1" gridSize="10" guides="1" tooltips="1" connect="1" arrows="1" fold="1" page="1" pageScale="1" pageWidth="850" pageHeight="1100" math="0" shadow="0">
      <root>
        <mxCell id="0" />
        <mxCell id="1" parent="0" />
        <mxCell id="cxezxCFL9sNGBjC_KCBs-1" value="AWS Cloud" style="points=[[0,0],[0.25,0],[0.5,0],[0.75,0],[1,0],[1,0.25],[1,0.5],[1,0.75],[1,1],[0.75,1],[0.5,1],[0.25,1],[0,1],[0,0.75],[0,0.5],[0,0.25]];outlineConnect=0;gradientColor=none;html=1;whiteSpace=wrap;fontSize=12;fontStyle=0;container=1;pointerEvents=0;collapsible=0;recursiveResize=0;shape=mxgraph.aws4.group;grIcon=mxgraph.aws4.group_aws_cloud_alt;strokeColor=#232F3E;fillColor=none;verticalAlign=top;align=left;spacingLeft=30;fontColor=#232F3E;dashed=0;" vertex="1" parent="1">
          <mxGeometry x="160" y="40" width="600" height="280" as="geometry" />
        </mxCell>
        <mxCell id="cxezxCFL9sNGBjC_KCBs-4" value="AWS Certificate Manager" style="sketch=0;points=[[0,0,0],[0.25,0,0],[0.5,0,0],[0.75,0,0],[1,0,0],[0,1,0],[0.25,1,0],[0.5,1,0],[0.75,1,0],[1,1,0],[0,0.25,0],[0,0.5,0],[0,0.75,0],[1,0.25,0],[1,0.5,0],[1,0.75,0]];outlineConnect=0;fontColor=#232F3E;fillColor=#DD344C;strokeColor=#ffffff;dashed=0;verticalLabelPosition=bottom;verticalAlign=top;align=center;html=1;fontSize=12;fontStyle=0;aspect=fixed;shape=mxgraph.aws4.resourceIcon;resIcon=mxgraph.aws4.certificate_manager_3;" vertex="1" parent="cxezxCFL9sNGBjC_KCBs-1">
          <mxGeometry x="270" y="40" width="59" height="59" as="geometry" />
        </mxCell>
        <mxCell id="cxezxCFL9sNGBjC_KCBs-5" value="Route 53" style="sketch=0;points=[[0,0,0],[0.25,0,0],[0.5,0,0],[0.75,0,0],[1,0,0],[0,1,0],[0.25,1,0],[0.5,1,0],[0.75,1,0],[1,1,0],[0,0.25,0],[0,0.5,0],[0,0.75,0],[1,0.25,0],[1,0.5,0],[1,0.75,0]];outlineConnect=0;fontColor=#232F3E;fillColor=#8C4FFF;strokeColor=#ffffff;dashed=0;verticalLabelPosition=bottom;verticalAlign=top;align=center;html=1;fontSize=12;fontStyle=0;aspect=fixed;shape=mxgraph.aws4.resourceIcon;resIcon=mxgraph.aws4.route_53;" vertex="1" parent="cxezxCFL9sNGBjC_KCBs-1">
          <mxGeometry x="40" y="180" width="60" height="60" as="geometry" />
        </mxCell>
        <mxCell id="cxezxCFL9sNGBjC_KCBs-7" value="S3 Website Bucket" style="sketch=0;outlineConnect=0;fontColor=#232F3E;gradientColor=none;fillColor=#7AA116;strokeColor=none;dashed=0;verticalLabelPosition=bottom;verticalAlign=top;align=center;html=1;fontSize=12;fontStyle=0;aspect=fixed;pointerEvents=1;shape=mxgraph.aws4.bucket_with_objects;" vertex="1" parent="cxezxCFL9sNGBjC_KCBs-1">
          <mxGeometry x="498" y="180" width="57.69" height="60" as="geometry" />
        </mxCell>
        <mxCell id="cxezxCFL9sNGBjC_KCBs-8" value="" style="endArrow=classic;startArrow=classic;html=1;rounded=0;" edge="1" parent="cxezxCFL9sNGBjC_KCBs-1" target="cxezxCFL9sNGBjC_KCBs-3">
          <mxGeometry width="50" height="50" relative="1" as="geometry">
            <mxPoint x="100" y="210" as="sourcePoint" />
            <mxPoint x="150" y="160" as="targetPoint" />
          </mxGeometry>
        </mxCell>
        <mxCell id="iCTbXTY_i6_kfuekwDtU-2" value="" style="endArrow=classic;startArrow=classic;html=1;rounded=0;" parent="1" edge="1" target="cxezxCFL9sNGBjC_KCBs-5">
          <mxGeometry width="50" height="50" relative="1" as="geometry">
            <mxPoint x="108" y="251" as="sourcePoint" />
            <mxPoint x="146" y="251" as="targetPoint" />
          </mxGeometry>
        </mxCell>
        <mxCell id="cxezxCFL9sNGBjC_KCBs-3" value="CloudFront" style="sketch=0;points=[[0,0,0],[0.25,0,0],[0.5,0,0],[0.75,0,0],[1,0,0],[0,1,0],[0.25,1,0],[0.5,1,0],[0.75,1,0],[1,1,0],[0,0.25,0],[0,0.5,0],[0,0.75,0],[1,0.25,0],[1,0.5,0],[1,0.75,0]];outlineConnect=0;fontColor=#232F3E;fillColor=#8C4FFF;strokeColor=#ffffff;dashed=0;verticalLabelPosition=bottom;verticalAlign=top;align=center;html=1;fontSize=12;fontStyle=0;aspect=fixed;shape=mxgraph.aws4.resourceIcon;resIcon=mxgraph.aws4.cloudfront;" vertex="1" parent="1">
          <mxGeometry x="430" y="222" width="58" height="58" as="geometry" />
        </mxCell>
        <mxCell id="cxezxCFL9sNGBjC_KCBs-6" value="Users" style="sketch=0;outlineConnect=0;fontColor=#232F3E;gradientColor=none;fillColor=#232F3D;strokeColor=none;dashed=0;verticalLabelPosition=bottom;verticalAlign=top;align=center;html=1;fontSize=12;fontStyle=0;aspect=fixed;pointerEvents=1;shape=mxgraph.aws4.users;" vertex="1" parent="1">
          <mxGeometry x="50" y="222" width="58" height="58" as="geometry" />
        </mxCell>
        <mxCell id="cxezxCFL9sNGBjC_KCBs-9" value="" style="endArrow=classic;startArrow=classic;html=1;rounded=0;" edge="1" parent="1">
          <mxGeometry width="50" height="50" relative="1" as="geometry">
            <mxPoint x="489" y="250" as="sourcePoint" />
            <mxPoint x="659" y="251" as="targetPoint" />
          </mxGeometry>
        </mxCell>
        <mxCell id="cxezxCFL9sNGBjC_KCBs-10" value="" style="endArrow=classic;startArrow=classic;html=1;rounded=0;" edge="1" parent="1">
          <mxGeometry width="50" height="50" relative="1" as="geometry">
            <mxPoint x="459" y="160" as="sourcePoint" />
            <mxPoint x="459" y="218" as="targetPoint" />
          </mxGeometry>
        </mxCell>
      </root>
    </mxGraphModel>
  </diagram>
</mxfile>
